<svg width="22" height="22" viewBox="0 0 22 22" fill="none" xmlns="http://www.w3.org/2000/svg">
<path d="M6.03597 1C6.61151 1 8.91367 6.17986 8.91367 6.7554C8.91367 7.90648 7.18705 9.05755 6.61151 10.2086C6.03597 11.3597 7.18705 12.5108 8.33813 13.6619C8.78705 14.1108 10.6403 15.964 11.7914 15.3885C12.9424 14.813 14.0935 13.0863 15.2446 13.0863C15.8201 13.0863 21 15.3885 21 15.964C21 18.2662 19.2734 19.9928 17.5468 20.5683C15.8201 21.1439 14.6691 21.1439 12.3669 20.5683C10.0647 19.9928 8.33813 19.4173 5.46043 16.5396C2.58273 13.6619 2.00719 11.9353 1.43165 9.63309C0.856115 7.33094 0.856115 6.17986 1.43165 4.45324C2.00719 2.72662 3.73381 1 6.03597 1Z" fill="#535353" stroke="#535353" stroke-width="2" stroke-linecap="round" stroke-linejoin="round"/>
<path d="M12.9424 5.65039C13.7021 6.00723 14.3927 6.49068 14.9683 7.07773C15.5323 7.64176 16.0043 8.32089 16.3496 9.05759" stroke="#535353" stroke-width="2" stroke-linecap="round" stroke-linejoin="round"/>
<path d="M14.0935 1.2876C15.7165 1.7135 17.1669 2.55378 18.318 3.70486C19.4575 4.85594 20.2978 6.29479 20.7122 7.9063" stroke="#535353" stroke-width="2" stroke-linecap="round" stroke-linejoin="round"/>
</svg>
