<svg width="23" height="22" viewBox="0 0 23 22" fill="none" xmlns="http://www.w3.org/2000/svg">
<path d="M17.9512 4.40001C17.3341 4.40001 16.8061 4.18477 16.367 3.75431C15.928 3.32384 15.7081 2.80574 15.7073 2.20001C15.7066 1.59427 15.9265 1.07654 16.367 0.646807C16.8076 0.217074 17.3356 0.0014741 17.9512 7.43243e-06C18.5668 -0.00145923 19.0952 0.214141 19.5365 0.646807C19.9778 1.07947 20.1974 1.59721 20.1951 2.20001C20.1929 2.80281 19.9734 3.32091 19.5365 3.75431C19.0997 4.18771 18.5713 4.40294 17.9512 4.40001ZM16.8293 22V13.2C16.8293 12.4667 16.6374 11.8067 16.2537 11.22C15.87 10.6333 15.3793 10.175 14.7817 9.845L15.7634 7.0125C15.913 6.55417 16.189 6.1875 16.5914 5.9125C16.9938 5.63751 17.4471 5.50001 17.9512 5.50001C18.4553 5.50001 18.909 5.63751 19.3121 5.9125C19.7153 6.1875 19.9909 6.55417 20.139 7.0125L23 15.4H20.1951V22H16.8293ZM11.7805 10.45C11.313 10.45 10.9158 10.2898 10.589 9.9693C10.2621 9.64884 10.0983 9.25907 10.0976 8.8C10.0968 8.34094 10.2606 7.95154 10.589 7.6318C10.9173 7.31207 11.3145 7.15147 11.7805 7.15C12.2465 7.14854 12.644 7.30914 12.9731 7.6318C13.3022 7.95447 13.4657 8.34387 13.4634 8.8C13.4612 9.25614 13.2977 9.6459 12.9731 9.9693C12.6485 10.2927 12.251 10.4529 11.7805 10.45ZM3.92683 4.40001C3.30976 4.40001 2.78169 4.18477 2.34263 3.75431C1.90358 3.32384 1.68367 2.80574 1.68293 2.20001C1.68218 1.59427 1.90208 1.07654 2.34263 0.646807C2.78319 0.217074 3.31125 0.0014741 3.92683 7.43243e-06C4.54241 -0.00145923 5.07085 0.214141 5.51215 0.646807C5.95345 1.07947 6.17298 1.59721 6.17073 2.20001C6.16849 2.80281 5.94896 3.32091 5.51215 3.75431C5.07533 4.18771 4.54689 4.40294 3.92683 4.40001ZM1.68293 22V14.3H0V7.7C0 7.095 0.219903 6.57727 0.659707 6.1468C1.09951 5.71634 1.62758 5.50074 2.2439 5.50001H5.60976C6.22683 5.50001 6.75527 5.7156 7.19507 6.1468C7.63488 6.578 7.85441 7.09574 7.85366 7.7V14.3H6.17073V22H1.68293ZM10.0976 22V17.6H8.97561V13.2C8.97561 12.7417 9.13941 12.3523 9.46702 12.0318C9.79463 11.7113 10.1918 11.5507 10.6585 11.55H12.9024C13.3699 11.55 13.7675 11.7106 14.0951 12.0318C14.4227 12.353 14.5861 12.7424 14.5854 13.2V17.6H13.4634V22H10.0976Z" fill="#535353"/>
</svg>
