<svg width="28" height="22" viewBox="0 0 28 22" fill="none" xmlns="http://www.w3.org/2000/svg">
<path d="M27.3223 9.39889L25.5623 4.11889C25.3988 3.63209 25.0869 3.20877 24.6703 2.90843C24.2538 2.60809 23.7536 2.44582 23.2401 2.44444H22.5557V1.22222C22.5557 0.55 22.0057 0 21.3334 0H20.1112C19.439 0 18.889 0.55 18.889 1.22222V2.44444H16.4446C15.1001 2.44444 14.0001 3.54444 14.0001 4.88889V9.77778H3.00011C1.65566 9.77778 0.555664 10.8778 0.555664 12.2222V15.8889C0.555664 17.2333 1.65566 18.3333 3.00011 18.3333H4.22233C4.22233 20.3622 5.86011 22 7.889 22C9.91789 22 11.5557 20.3622 11.5557 18.3333H16.4446C16.4446 20.3622 18.0823 22 20.1112 22C22.1401 22 23.7779 20.3622 23.7779 18.3333H25.0001C26.3446 18.3333 27.4446 17.2333 27.4446 15.8889V10.1689C27.4446 9.91222 27.4079 9.65555 27.3223 9.39889ZM7.889 19.5556C7.21677 19.5556 6.66678 19.0056 6.66678 18.3333C6.66678 17.6611 7.21677 17.1111 7.889 17.1111C8.56122 17.1111 9.11122 17.6611 9.11122 18.3333C9.11122 19.0056 8.56122 19.5556 7.889 19.5556ZM20.1112 19.5556C19.439 19.5556 18.889 19.0056 18.889 18.3333C18.889 17.6611 19.439 17.1111 20.1112 17.1111C20.7834 17.1111 21.3334 17.6611 21.3334 18.3333C21.3334 19.0056 20.7834 19.5556 20.1112 19.5556ZM16.4446 9.77778V4.88889H23.2401L24.8657 9.77778H16.4446Z" fill="#535353"/>
<path d="M11.8612 6.72211H11.5557V4.27767H11.8612C12.3623 4.27767 12.7779 3.86211 12.7779 3.361C12.7779 2.85989 12.3623 2.44434 11.8612 2.44434H1.47233C0.97122 2.44434 0.555664 2.85989 0.555664 3.361C0.555664 3.86211 0.97122 4.27767 1.47233 4.27767H1.77789V6.72211H1.47233C0.97122 6.72211 0.555664 7.13767 0.555664 7.63878C0.555664 8.13989 0.97122 8.55545 1.47233 8.55545H11.8612C12.3623 8.55545 12.7779 8.13989 12.7779 7.63878C12.7779 7.13767 12.3623 6.72211 11.8612 6.72211ZM5.75011 6.72211H3.61122V4.27767H5.75011V6.72211ZM9.72233 6.72211H7.58344V4.27767H9.72233V6.72211Z" fill="#535353"/>
</svg>
