<svg width="27" height="22" viewBox="0 0 27 22" fill="none" xmlns="http://www.w3.org/2000/svg">
<path d="M26.069 20.1667H25.1379V11C25.1379 10.5138 24.9417 10.0475 24.5925 9.70364C24.2433 9.35982 23.7697 9.16667 23.2759 9.16667H16.7586V1.83333C16.7586 1.3471 16.5624 0.880787 16.2132 0.536971C15.864 0.193154 15.3904 0 14.8966 0H3.72414C3.23029 0 2.75666 0.193154 2.40746 0.536971C2.05825 0.880787 1.86207 1.3471 1.86207 1.83333V20.1667H0.931035C0.684109 20.1667 0.447296 20.2632 0.272694 20.4352C0.0980908 20.6071 0 20.8402 0 21.0833C0 21.3264 0.0980908 21.5596 0.272694 21.7315C0.447296 21.9034 0.684109 22 0.931035 22H26.069C26.3159 22 26.5527 21.9034 26.7273 21.7315C26.9019 21.5596 27 21.3264 27 21.0833C27 20.8402 26.9019 20.6071 26.7273 20.4352C26.5527 20.2632 26.3159 20.1667 26.069 20.1667ZM12.1034 20.1667H6.51724V14.6667H12.1034V20.1667ZM12.1034 8.25H10.2414V10.0833C10.2414 10.3264 10.1433 10.5596 9.96869 10.7315C9.79408 10.9034 9.55727 11 9.31034 11C9.06342 11 8.82661 10.9034 8.652 10.7315C8.4774 10.5596 8.37931 10.3264 8.37931 10.0833V8.25H6.51724C6.27032 8.25 6.0335 8.15342 5.8589 7.98151C5.6843 7.80961 5.58621 7.57645 5.58621 7.33333C5.58621 7.09022 5.6843 6.85706 5.8589 6.68515C6.0335 6.51324 6.27032 6.41667 6.51724 6.41667H8.37931V4.58333C8.37931 4.34022 8.4774 4.10706 8.652 3.93515C8.82661 3.76324 9.06342 3.66667 9.31034 3.66667C9.55727 3.66667 9.79408 3.76324 9.96869 3.93515C10.1433 4.10706 10.2414 4.34022 10.2414 4.58333V6.41667H12.1034C12.3504 6.41667 12.5872 6.51324 12.7618 6.68515C12.9364 6.85706 13.0345 7.09022 13.0345 7.33333C13.0345 7.57645 12.9364 7.80961 12.7618 7.98151C12.5872 8.15342 12.3504 8.25 12.1034 8.25ZM23.2759 20.1667H16.7586V11H23.2759V20.1667Z" fill="#535353"/>
</svg>
