<svg width="20" height="24" viewBox="0 0 20 24" fill="none" xmlns="http://www.w3.org/2000/svg">
<path d="M10.7929 0.201778L19.3643 5.00174C19.5599 5.11136 19.7202 5.25984 19.8311 5.434C19.942 5.60816 20 5.80263 20 6.00014V20.4C20 21.3548 19.5485 22.2705 18.7447 22.9456C17.941 23.6207 16.8509 24 15.7143 24H4.28571C3.14907 24 2.05898 23.6207 1.25526 22.9456C0.451529 22.2705 1.59991e-08 21.3548 1.59991e-08 20.4V6.00014C-3.51704e-05 5.80263 0.0579684 5.60816 0.168864 5.434C0.27976 5.25984 0.44012 5.11136 0.635715 5.00174L9.20714 0.201778C9.4419 0.0702122 9.71779 0 10 0C10.2822 0 10.5581 0.0702122 10.7929 0.201778ZM10.6386 15.7273C10.4403 15.644 10.2217 15.6007 10 15.6007C9.77834 15.6007 9.55972 15.644 9.36143 15.7273L6.50429 16.9273C6.1657 17.0696 5.90825 17.3191 5.78851 17.6208C5.66877 17.9226 5.69654 18.2519 5.86571 18.5364L5.94857 18.6588C6.14074 18.9044 6.4335 19.0822 6.77132 19.1585C7.10915 19.2348 7.46856 19.2043 7.78143 19.0728L10 18.1416L12.2186 19.0728C12.5556 19.2036 12.94 19.219 13.2903 19.1159C13.6406 19.0127 13.9294 18.799 14.0954 18.5201C14.2614 18.2412 14.2917 17.919 14.1797 17.6216C14.0678 17.3243 13.8225 17.0753 13.4957 16.9273L10.6386 15.7273ZM10.6386 10.9273C10.4403 10.8441 10.2217 10.8007 10 10.8007C9.77834 10.8007 9.55972 10.8441 9.36143 10.9273L6.50429 12.1273C6.1657 12.2697 5.90825 12.5191 5.78851 12.8209C5.66877 13.1226 5.69654 13.4519 5.86571 13.7365L5.94857 13.8589C6.14074 14.1044 6.4335 14.2822 6.77132 14.3585C7.10915 14.4348 7.46856 14.4043 7.78143 14.2729L10 13.3417L12.2186 14.2729C12.5556 14.4036 12.94 14.4191 13.2903 14.3159C13.6406 14.2127 13.9294 13.9991 14.0954 13.7201C14.2614 13.4412 14.2917 13.119 14.1797 12.8217C14.0678 12.5243 13.8225 12.2753 13.4957 12.1273L10.6386 10.9273ZM10.6386 6.12733C10.4403 6.0441 10.2217 6.00078 10 6.00078C9.77834 6.00078 9.55972 6.0441 9.36143 6.12733L6.50429 7.32733C6.1657 7.4697 5.90825 7.71917 5.78851 8.0209C5.66877 8.32264 5.69654 8.65196 5.86571 8.93651L5.94857 9.05891C6.14074 9.30446 6.4335 9.48223 6.77132 9.55854C7.10915 9.63485 7.46856 9.60438 7.78143 9.47291L10 8.54172L12.2186 9.47291C12.5556 9.60368 12.94 9.61912 13.2903 9.51594C13.6406 9.41277 13.9294 9.1991 14.0954 8.92019C14.2614 8.64127 14.2917 8.31902 14.1797 8.0217C14.0678 7.72438 13.8225 7.47534 13.4957 7.32733L10.6386 6.12733Z" fill="#535353"/>
</svg>
