<svg width="25" height="22" viewBox="0 0 25 22" fill="none" xmlns="http://www.w3.org/2000/svg">
<path d="M24.825 10.7418L21.4375 5.0669C21.2194 4.684 20.9061 4.36562 20.529 4.1434C20.1518 3.92117 19.7238 3.80285 19.2875 3.80018H16.25V1.26673C16.25 0.930769 16.1183 0.608573 15.8839 0.371016C15.6495 0.133459 15.3315 0 15 0H2.5C1.83696 0 1.20107 0.266916 0.732233 0.742031C0.263392 1.21715 0 1.86154 0 2.53345V15.2007C0.000449677 15.645 0.116178 16.0813 0.335577 16.466C0.554975 16.8506 0.870328 17.17 1.25 17.3921C1.20524 18.568 1.62326 19.7137 2.41208 20.5772C3.20091 21.4407 4.29593 21.9513 5.45625 21.9967C6.61657 22.0421 7.74715 21.6184 8.59927 20.8191C9.45139 20.0197 9.95525 18.91 10 17.7342H13.875C14.0132 18.794 14.5268 19.7669 15.3202 20.4716C16.1135 21.1763 17.1325 21.5648 18.1875 21.5648C19.2425 21.5648 20.2615 21.1763 21.0548 20.4716C21.8482 19.7669 22.3618 18.794 22.5 17.7342C23.163 17.7342 23.7989 17.4672 24.2678 16.9921C24.7366 16.517 25 15.8726 25 15.2007V11.4005C24.9964 11.1697 24.9363 10.9433 24.825 10.7418ZM5.625 19.0009C5.25416 19.0009 4.89165 18.8895 4.58331 18.6807C4.27496 18.4719 4.03464 18.1751 3.89273 17.8279C3.75081 17.4807 3.71368 17.0987 3.78603 16.7301C3.85837 16.3615 4.03695 16.023 4.29917 15.7572C4.5614 15.4915 4.89549 15.3105 5.25921 15.2372C5.62292 15.1639 5.99992 15.2015 6.34253 15.3454C6.68514 15.4892 6.97798 15.7327 7.18401 16.0452C7.39003 16.3576 7.5 16.725 7.5 17.1008C7.5 17.6047 7.30246 18.088 6.95083 18.4444C6.59919 18.8007 6.12228 19.0009 5.625 19.0009ZM12.5 8.86708H10V11.4005H7.5V8.86708H5V6.33363H7.5V3.80018H10V6.33363H12.5V8.86708ZM18.125 19.0009C17.7542 19.0009 17.3916 18.8895 17.0833 18.6807C16.775 18.4719 16.5346 18.1751 16.3927 17.8279C16.2508 17.4807 16.2137 17.0987 16.286 16.7301C16.3584 16.3615 16.537 16.023 16.7992 15.7572C17.0614 15.4915 17.3955 15.3105 17.7592 15.2372C18.1229 15.1639 18.4999 15.2015 18.8425 15.3454C19.1851 15.4892 19.478 15.7327 19.684 16.0452C19.89 16.3576 20 16.725 20 17.1008C20 17.6047 19.8025 18.088 19.4508 18.4444C19.0992 18.8007 18.6223 19.0009 18.125 19.0009ZM16.25 10.1338V6.33363H19.2875L21.5375 10.1338H16.25Z" fill="#535353"/>
</svg>
