<svg width="19" height="22" viewBox="0 0 19 22" fill="none" xmlns="http://www.w3.org/2000/svg">
<path d="M12 11.59L12.63 14.32C12.73 14.75 12.26 15.09 11.88 14.86L9.5 13.42L7.11 14.86C7.02575 14.9111 6.92833 14.9363 6.82987 14.9324C6.73141 14.9285 6.63626 14.8958 6.5563 14.8382C6.47633 14.7806 6.41508 14.7008 6.38017 14.6086C6.34526 14.5165 6.33825 14.4161 6.36 14.32L7 11.6L4.9 9.79C4.82455 9.72621 4.76969 9.6415 4.74234 9.54657C4.71499 9.45163 4.71638 9.35071 4.74634 9.25656C4.7763 9.16241 4.83347 9.07925 4.91066 9.01757C4.98784 8.95589 5.08156 8.91846 5.18 8.91L7.96 8.67L9.04 6.11C9.21 5.7 9.79 5.7 9.96 6.11L11.04 8.66L13.82 8.9C13.9184 8.90846 14.0122 8.94589 14.0893 9.00757C14.1665 9.06925 14.2237 9.15241 14.2537 9.24656C14.2836 9.34071 14.285 9.44163 14.2577 9.53656C14.2303 9.6315 14.1755 9.71621 14.1 9.78L12 11.59ZM1.69 3.47C0.97 3.79 0.5 4.51 0.5 5.3V10C0.5 15.55 4.34 20.74 9.5 22C14.66 20.74 18.5 15.55 18.5 10V5.3C18.5 4.51 18.03 3.79 17.31 3.47L10.31 0.36C9.79 0.13 9.2 0.13 8.69 0.36L1.69 3.47Z" fill="#535353"/>
</svg>
